<mxfile host="Electron" modified="2025-02-17T09:54:35.751Z" agent="Mozilla/5.0 (Windows NT 10.0; Win64; x64) AppleWebKit/537.36 (KHTML, like Gecko) draw.io/21.7.5 Chrome/114.0.5735.289 Electron/25.8.1 Safari/537.36" etag="LW_Sem_Ft2o4moVjpYIs" version="21.7.5" type="device">
  <diagram name="PÃ¡gina-1" id="Rf2PP-rYTujlw45P1ghS">
    <mxGraphModel dx="2094" dy="973" grid="1" gridSize="10" guides="1" tooltips="1" connect="1" arrows="1" fold="1" page="1" pageScale="1" pageWidth="1169" pageHeight="827" math="0" shadow="0">
      <root>
        <mxCell id="0" />
        <mxCell id="1" parent="0" />
        <mxCell id="_3O_NWdHPnYHmbS3pkrX-1" value="EntiedadBancaria" style="swimlane;fontStyle=0;childLayout=stackLayout;horizontal=1;startSize=26;fillColor=none;horizontalStack=0;resizeParent=1;resizeParentMax=0;resizeLast=0;collapsible=1;marginBottom=0;whiteSpace=wrap;html=1;" vertex="1" parent="1">
          <mxGeometry x="-210" y="120" width="140" height="78" as="geometry" />
        </mxCell>
        <mxCell id="_3O_NWdHPnYHmbS3pkrX-2" value="- codigo: String" style="text;strokeColor=none;fillColor=none;align=left;verticalAlign=top;spacingLeft=4;spacingRight=4;overflow=hidden;rotatable=0;points=[[0,0.5],[1,0.5]];portConstraint=eastwest;whiteSpace=wrap;html=1;" vertex="1" parent="_3O_NWdHPnYHmbS3pkrX-1">
          <mxGeometry y="26" width="140" height="26" as="geometry" />
        </mxCell>
        <mxCell id="_3O_NWdHPnYHmbS3pkrX-3" value="- domCentral: String" style="text;strokeColor=none;fillColor=none;align=left;verticalAlign=top;spacingLeft=4;spacingRight=4;overflow=hidden;rotatable=0;points=[[0,0.5],[1,0.5]];portConstraint=eastwest;whiteSpace=wrap;html=1;" vertex="1" parent="_3O_NWdHPnYHmbS3pkrX-1">
          <mxGeometry y="52" width="140" height="26" as="geometry" />
        </mxCell>
        <mxCell id="_3O_NWdHPnYHmbS3pkrX-5" value="Sucursal" style="swimlane;fontStyle=0;childLayout=stackLayout;horizontal=1;startSize=26;fillColor=none;horizontalStack=0;resizeParent=1;resizeParentMax=0;resizeLast=0;collapsible=1;marginBottom=0;whiteSpace=wrap;html=1;" vertex="1" parent="1">
          <mxGeometry x="120" y="220" width="140" height="106" as="geometry" />
        </mxCell>
        <mxCell id="_3O_NWdHPnYHmbS3pkrX-6" value="- codigo: String" style="text;strokeColor=none;fillColor=none;align=left;verticalAlign=top;spacingLeft=4;spacingRight=4;overflow=hidden;rotatable=0;points=[[0,0.5],[1,0.5]];portConstraint=eastwest;whiteSpace=wrap;html=1;" vertex="1" parent="_3O_NWdHPnYHmbS3pkrX-5">
          <mxGeometry y="26" width="140" height="26" as="geometry" />
        </mxCell>
        <mxCell id="_3O_NWdHPnYHmbS3pkrX-7" value="- domCentral: String" style="text;strokeColor=none;fillColor=none;align=left;verticalAlign=top;spacingLeft=4;spacingRight=4;overflow=hidden;rotatable=0;points=[[0,0.5],[1,0.5]];portConstraint=eastwest;whiteSpace=wrap;html=1;" vertex="1" parent="_3O_NWdHPnYHmbS3pkrX-5">
          <mxGeometry y="52" width="140" height="28" as="geometry" />
        </mxCell>
        <mxCell id="_3O_NWdHPnYHmbS3pkrX-8" value="- numEmpleados: int" style="text;strokeColor=none;fillColor=none;align=left;verticalAlign=top;spacingLeft=4;spacingRight=4;overflow=hidden;rotatable=0;points=[[0,0.5],[1,0.5]];portConstraint=eastwest;whiteSpace=wrap;html=1;" vertex="1" parent="_3O_NWdHPnYHmbS3pkrX-5">
          <mxGeometry y="80" width="140" height="26" as="geometry" />
        </mxCell>
        <mxCell id="_3O_NWdHPnYHmbS3pkrX-17" value="VigJurado" style="swimlane;fontStyle=0;childLayout=stackLayout;horizontal=1;startSize=26;fillColor=none;horizontalStack=0;resizeParent=1;resizeParentMax=0;resizeLast=0;collapsible=1;marginBottom=0;whiteSpace=wrap;html=1;" vertex="1" parent="1">
          <mxGeometry x="-70" y="360" width="140" height="78" as="geometry" />
        </mxCell>
        <mxCell id="_3O_NWdHPnYHmbS3pkrX-18" value="- codigo: String" style="text;strokeColor=none;fillColor=none;align=left;verticalAlign=top;spacingLeft=4;spacingRight=4;overflow=hidden;rotatable=0;points=[[0,0.5],[1,0.5]];portConstraint=eastwest;whiteSpace=wrap;html=1;" vertex="1" parent="_3O_NWdHPnYHmbS3pkrX-17">
          <mxGeometry y="26" width="140" height="26" as="geometry" />
        </mxCell>
        <mxCell id="_3O_NWdHPnYHmbS3pkrX-19" value="- edad: int" style="text;strokeColor=none;fillColor=none;align=left;verticalAlign=top;spacingLeft=4;spacingRight=4;overflow=hidden;rotatable=0;points=[[0,0.5],[1,0.5]];portConstraint=eastwest;whiteSpace=wrap;html=1;" vertex="1" parent="_3O_NWdHPnYHmbS3pkrX-17">
          <mxGeometry y="52" width="140" height="26" as="geometry" />
        </mxCell>
        <mxCell id="_3O_NWdHPnYHmbS3pkrX-23" value="" style="endArrow=none;html=1;rounded=0;entryX=0;entryY=0.286;entryDx=0;entryDy=0;entryPerimeter=0;" edge="1" parent="1" target="_3O_NWdHPnYHmbS3pkrX-7">
          <mxGeometry width="50" height="50" relative="1" as="geometry">
            <mxPoint y="360" as="sourcePoint" />
            <mxPoint x="320" y="400" as="targetPoint" />
            <Array as="points">
              <mxPoint y="280" />
            </Array>
          </mxGeometry>
        </mxCell>
        <mxCell id="_3O_NWdHPnYHmbS3pkrX-24" value="" style="endArrow=none;html=1;rounded=0;entryX=0.464;entryY=0.962;entryDx=0;entryDy=0;entryPerimeter=0;exitX=0.407;exitY=-0.013;exitDx=0;exitDy=0;exitPerimeter=0;" edge="1" parent="1" source="_3O_NWdHPnYHmbS3pkrX-17" target="_3O_NWdHPnYHmbS3pkrX-3">
          <mxGeometry width="50" height="50" relative="1" as="geometry">
            <mxPoint x="10" y="350" as="sourcePoint" />
            <mxPoint x="60" y="300" as="targetPoint" />
            <Array as="points">
              <mxPoint x="-13" y="280" />
              <mxPoint x="-145" y="280" />
            </Array>
          </mxGeometry>
        </mxCell>
        <mxCell id="_3O_NWdHPnYHmbS3pkrX-25" value="contrata" style="text;html=1;align=center;verticalAlign=middle;resizable=0;points=[];autosize=1;strokeColor=none;fillColor=none;" vertex="1" parent="1">
          <mxGeometry x="30" y="258" width="70" height="30" as="geometry" />
        </mxCell>
        <mxCell id="_3O_NWdHPnYHmbS3pkrX-26" value="contrata" style="text;html=1;align=center;verticalAlign=middle;resizable=0;points=[];autosize=1;strokeColor=none;fillColor=none;" vertex="1" parent="1">
          <mxGeometry x="-120" y="258" width="70" height="30" as="geometry" />
        </mxCell>
        <mxCell id="_3O_NWdHPnYHmbS3pkrX-29" value="tiene" style="text;html=1;align=center;verticalAlign=middle;resizable=0;points=[];autosize=1;strokeColor=none;fillColor=none;" vertex="1" parent="1">
          <mxGeometry x="30" y="130" width="50" height="30" as="geometry" />
        </mxCell>
        <mxCell id="_3O_NWdHPnYHmbS3pkrX-30" value="1" style="text;html=1;align=center;verticalAlign=middle;resizable=0;points=[];autosize=1;strokeColor=none;fillColor=none;" vertex="1" parent="1">
          <mxGeometry x="-75" y="128" width="30" height="30" as="geometry" />
        </mxCell>
        <mxCell id="_3O_NWdHPnYHmbS3pkrX-31" value="*" style="text;html=1;align=center;verticalAlign=middle;resizable=0;points=[];autosize=1;strokeColor=none;fillColor=none;" vertex="1" parent="1">
          <mxGeometry x="195" y="198" width="30" height="30" as="geometry" />
        </mxCell>
        <mxCell id="_3O_NWdHPnYHmbS3pkrX-32" value="*" style="text;html=1;align=center;verticalAlign=middle;resizable=0;points=[];autosize=1;strokeColor=none;fillColor=none;" vertex="1" parent="1">
          <mxGeometry x="-5" y="338" width="30" height="30" as="geometry" />
        </mxCell>
        <mxCell id="_3O_NWdHPnYHmbS3pkrX-33" value="*" style="text;html=1;align=center;verticalAlign=middle;resizable=0;points=[];autosize=1;strokeColor=none;fillColor=none;" vertex="1" parent="1">
          <mxGeometry x="90" y="258" width="30" height="30" as="geometry" />
        </mxCell>
        <mxCell id="_3O_NWdHPnYHmbS3pkrX-34" value="*" style="text;html=1;align=center;verticalAlign=middle;resizable=0;points=[];autosize=1;strokeColor=none;fillColor=none;" vertex="1" parent="1">
          <mxGeometry x="-170" y="198" width="30" height="30" as="geometry" />
        </mxCell>
        <mxCell id="_3O_NWdHPnYHmbS3pkrX-35" value="*" style="text;html=1;align=center;verticalAlign=middle;resizable=0;points=[];autosize=1;strokeColor=none;fillColor=none;" vertex="1" parent="1">
          <mxGeometry x="-35" y="338" width="30" height="30" as="geometry" />
        </mxCell>
        <mxCell id="_3O_NWdHPnYHmbS3pkrX-36" value="Contrato" style="swimlane;fontStyle=0;childLayout=stackLayout;horizontal=1;startSize=26;fillColor=none;horizontalStack=0;resizeParent=1;resizeParentMax=0;resizeLast=0;collapsible=1;marginBottom=0;whiteSpace=wrap;html=1;" vertex="1" parent="1">
          <mxGeometry x="195" y="360" width="140" height="78" as="geometry" />
        </mxCell>
        <mxCell id="_3O_NWdHPnYHmbS3pkrX-37" value="- fecha: String" style="text;strokeColor=none;fillColor=none;align=left;verticalAlign=top;spacingLeft=4;spacingRight=4;overflow=hidden;rotatable=0;points=[[0,0.5],[1,0.5]];portConstraint=eastwest;whiteSpace=wrap;html=1;" vertex="1" parent="_3O_NWdHPnYHmbS3pkrX-36">
          <mxGeometry y="26" width="140" height="26" as="geometry" />
        </mxCell>
        <mxCell id="_3O_NWdHPnYHmbS3pkrX-38" value="- arma: boolean" style="text;strokeColor=none;fillColor=none;align=left;verticalAlign=top;spacingLeft=4;spacingRight=4;overflow=hidden;rotatable=0;points=[[0,0.5],[1,0.5]];portConstraint=eastwest;whiteSpace=wrap;html=1;" vertex="1" parent="_3O_NWdHPnYHmbS3pkrX-36">
          <mxGeometry y="52" width="140" height="26" as="geometry" />
        </mxCell>
        <mxCell id="_3O_NWdHPnYHmbS3pkrX-40" value="" style="endArrow=diamondThin;endFill=1;endSize=24;html=1;rounded=0;entryX=1.007;entryY=0.764;entryDx=0;entryDy=0;exitX=0.006;exitY=0.762;exitDx=0;exitDy=0;exitPerimeter=0;entryPerimeter=0;" edge="1" parent="1" source="_3O_NWdHPnYHmbS3pkrX-37" target="_3O_NWdHPnYHmbS3pkrX-18">
          <mxGeometry width="160" relative="1" as="geometry">
            <mxPoint x="180" y="330" as="sourcePoint" />
            <mxPoint x="340" y="330" as="targetPoint" />
            <Array as="points" />
          </mxGeometry>
        </mxCell>
        <mxCell id="_3O_NWdHPnYHmbS3pkrX-41" value="*" style="text;html=1;align=center;verticalAlign=middle;resizable=0;points=[];autosize=1;strokeColor=none;fillColor=none;" vertex="1" parent="1">
          <mxGeometry x="155" y="378" width="30" height="30" as="geometry" />
        </mxCell>
        <mxCell id="_3O_NWdHPnYHmbS3pkrX-42" value="1" style="text;html=1;align=center;verticalAlign=middle;resizable=0;points=[];autosize=1;strokeColor=none;fillColor=none;" vertex="1" parent="1">
          <mxGeometry x="70" y="378" width="30" height="30" as="geometry" />
        </mxCell>
        <mxCell id="_3O_NWdHPnYHmbS3pkrX-43" value="PersonaDetenida" style="swimlane;fontStyle=0;childLayout=stackLayout;horizontal=1;startSize=26;fillColor=none;horizontalStack=0;resizeParent=1;resizeParentMax=0;resizeLast=0;collapsible=1;marginBottom=0;whiteSpace=wrap;html=1;" vertex="1" parent="1">
          <mxGeometry x="-70" y="510" width="140" height="78" as="geometry" />
        </mxCell>
        <mxCell id="_3O_NWdHPnYHmbS3pkrX-44" value="- codigo: String" style="text;strokeColor=none;fillColor=none;align=left;verticalAlign=top;spacingLeft=4;spacingRight=4;overflow=hidden;rotatable=0;points=[[0,0.5],[1,0.5]];portConstraint=eastwest;whiteSpace=wrap;html=1;" vertex="1" parent="_3O_NWdHPnYHmbS3pkrX-43">
          <mxGeometry y="26" width="140" height="26" as="geometry" />
        </mxCell>
        <mxCell id="_3O_NWdHPnYHmbS3pkrX-45" value="- nombre: String" style="text;strokeColor=none;fillColor=none;align=left;verticalAlign=top;spacingLeft=4;spacingRight=4;overflow=hidden;rotatable=0;points=[[0,0.5],[1,0.5]];portConstraint=eastwest;whiteSpace=wrap;html=1;" vertex="1" parent="_3O_NWdHPnYHmbS3pkrX-43">
          <mxGeometry y="52" width="140" height="26" as="geometry" />
        </mxCell>
        <mxCell id="_3O_NWdHPnYHmbS3pkrX-47" value="Banda" style="swimlane;fontStyle=0;childLayout=stackLayout;horizontal=1;startSize=26;fillColor=none;horizontalStack=0;resizeParent=1;resizeParentMax=0;resizeLast=0;collapsible=1;marginBottom=0;whiteSpace=wrap;html=1;" vertex="1" parent="1">
          <mxGeometry x="-70" y="660" width="140" height="78" as="geometry" />
        </mxCell>
        <mxCell id="_3O_NWdHPnYHmbS3pkrX-48" value="- numero: int" style="text;strokeColor=none;fillColor=none;align=left;verticalAlign=top;spacingLeft=4;spacingRight=4;overflow=hidden;rotatable=0;points=[[0,0.5],[1,0.5]];portConstraint=eastwest;whiteSpace=wrap;html=1;" vertex="1" parent="_3O_NWdHPnYHmbS3pkrX-47">
          <mxGeometry y="26" width="140" height="26" as="geometry" />
        </mxCell>
        <mxCell id="_3O_NWdHPnYHmbS3pkrX-49" value="- miembros: int" style="text;strokeColor=none;fillColor=none;align=left;verticalAlign=top;spacingLeft=4;spacingRight=4;overflow=hidden;rotatable=0;points=[[0,0.5],[1,0.5]];portConstraint=eastwest;whiteSpace=wrap;html=1;" vertex="1" parent="_3O_NWdHPnYHmbS3pkrX-47">
          <mxGeometry y="52" width="140" height="26" as="geometry" />
        </mxCell>
        <mxCell id="_3O_NWdHPnYHmbS3pkrX-51" value="" style="endArrow=diamondThin;endFill=0;endSize=24;html=1;rounded=0;entryX=0.5;entryY=0;entryDx=0;entryDy=0;exitX=0.507;exitY=1.077;exitDx=0;exitDy=0;exitPerimeter=0;" edge="1" parent="1" source="_3O_NWdHPnYHmbS3pkrX-45" target="_3O_NWdHPnYHmbS3pkrX-47">
          <mxGeometry width="160" relative="1" as="geometry">
            <mxPoint x="160" y="610" as="sourcePoint" />
            <mxPoint x="320" y="610" as="targetPoint" />
          </mxGeometry>
        </mxCell>
        <mxCell id="_3O_NWdHPnYHmbS3pkrX-53" value="" style="endArrow=none;html=1;rounded=0;exitX=1.007;exitY=0.885;exitDx=0;exitDy=0;exitPerimeter=0;entryX=1.007;entryY=0.179;entryDx=0;entryDy=0;entryPerimeter=0;" edge="1" parent="1" source="_3O_NWdHPnYHmbS3pkrX-44" target="_3O_NWdHPnYHmbS3pkrX-7">
          <mxGeometry width="50" height="50" relative="1" as="geometry">
            <mxPoint x="240" y="480" as="sourcePoint" />
            <mxPoint x="290" y="430" as="targetPoint" />
            <Array as="points">
              <mxPoint x="470" y="559" />
              <mxPoint x="470" y="277" />
            </Array>
          </mxGeometry>
        </mxCell>
        <mxCell id="_3O_NWdHPnYHmbS3pkrX-54" value="" style="endArrow=none;dashed=1;html=1;dashPattern=1 3;strokeWidth=2;rounded=0;" edge="1" parent="1">
          <mxGeometry width="50" height="50" relative="1" as="geometry">
            <mxPoint x="560" y="410" as="sourcePoint" />
            <mxPoint x="470" y="410" as="targetPoint" />
          </mxGeometry>
        </mxCell>
        <mxCell id="_3O_NWdHPnYHmbS3pkrX-55" value="Atraque" style="swimlane;fontStyle=0;childLayout=stackLayout;horizontal=1;startSize=26;fillColor=none;horizontalStack=0;resizeParent=1;resizeParentMax=0;resizeLast=0;collapsible=1;marginBottom=0;whiteSpace=wrap;html=1;" vertex="1" parent="1">
          <mxGeometry x="560" y="386" width="140" height="52" as="geometry" />
        </mxCell>
        <mxCell id="_3O_NWdHPnYHmbS3pkrX-56" value="- fecha: String" style="text;strokeColor=none;fillColor=none;align=left;verticalAlign=top;spacingLeft=4;spacingRight=4;overflow=hidden;rotatable=0;points=[[0,0.5],[1,0.5]];portConstraint=eastwest;whiteSpace=wrap;html=1;" vertex="1" parent="_3O_NWdHPnYHmbS3pkrX-55">
          <mxGeometry y="26" width="140" height="26" as="geometry" />
        </mxCell>
        <mxCell id="_3O_NWdHPnYHmbS3pkrX-59" value="*" style="text;html=1;align=center;verticalAlign=middle;resizable=0;points=[];autosize=1;strokeColor=none;fillColor=none;" vertex="1" parent="1">
          <mxGeometry x="60" y="558" width="30" height="30" as="geometry" />
        </mxCell>
        <mxCell id="_3O_NWdHPnYHmbS3pkrX-60" value="*" style="text;html=1;align=center;verticalAlign=middle;resizable=0;points=[];autosize=1;strokeColor=none;fillColor=none;" vertex="1" parent="1">
          <mxGeometry x="250" y="250" width="30" height="30" as="geometry" />
        </mxCell>
        <mxCell id="_3O_NWdHPnYHmbS3pkrX-62" value="Juez" style="swimlane;fontStyle=0;childLayout=stackLayout;horizontal=1;startSize=26;fillColor=none;horizontalStack=0;resizeParent=1;resizeParentMax=0;resizeLast=0;collapsible=1;marginBottom=0;whiteSpace=wrap;html=1;" vertex="1" parent="1">
          <mxGeometry x="-370" y="497" width="140" height="104" as="geometry" />
        </mxCell>
        <mxCell id="_3O_NWdHPnYHmbS3pkrX-63" value="- clave: Sting" style="text;strokeColor=none;fillColor=none;align=left;verticalAlign=top;spacingLeft=4;spacingRight=4;overflow=hidden;rotatable=0;points=[[0,0.5],[1,0.5]];portConstraint=eastwest;whiteSpace=wrap;html=1;" vertex="1" parent="_3O_NWdHPnYHmbS3pkrX-62">
          <mxGeometry y="26" width="140" height="26" as="geometry" />
        </mxCell>
        <mxCell id="_3O_NWdHPnYHmbS3pkrX-64" value="- nombre: String" style="text;strokeColor=none;fillColor=none;align=left;verticalAlign=top;spacingLeft=4;spacingRight=4;overflow=hidden;rotatable=0;points=[[0,0.5],[1,0.5]];portConstraint=eastwest;whiteSpace=wrap;html=1;" vertex="1" parent="_3O_NWdHPnYHmbS3pkrX-62">
          <mxGeometry y="52" width="140" height="26" as="geometry" />
        </mxCell>
        <mxCell id="_3O_NWdHPnYHmbS3pkrX-65" value="- aÃ±os: int" style="text;strokeColor=none;fillColor=none;align=left;verticalAlign=top;spacingLeft=4;spacingRight=4;overflow=hidden;rotatable=0;points=[[0,0.5],[1,0.5]];portConstraint=eastwest;whiteSpace=wrap;html=1;" vertex="1" parent="_3O_NWdHPnYHmbS3pkrX-62">
          <mxGeometry y="78" width="140" height="26" as="geometry" />
        </mxCell>
        <mxCell id="_3O_NWdHPnYHmbS3pkrX-67" value="" style="endArrow=none;html=1;rounded=0;entryX=0.004;entryY=0.912;entryDx=0;entryDy=0;entryPerimeter=0;exitX=1.005;exitY=0.419;exitDx=0;exitDy=0;exitPerimeter=0;" edge="1" parent="1" source="_3O_NWdHPnYHmbS3pkrX-64" target="_3O_NWdHPnYHmbS3pkrX-44">
          <mxGeometry width="50" height="50" relative="1" as="geometry">
            <mxPoint x="-220" y="558" as="sourcePoint" />
            <mxPoint x="-170" y="508" as="targetPoint" />
          </mxGeometry>
        </mxCell>
        <mxCell id="_3O_NWdHPnYHmbS3pkrX-68" value="" style="endArrow=none;dashed=1;html=1;dashPattern=1 3;strokeWidth=2;rounded=0;" edge="1" parent="1">
          <mxGeometry width="50" height="50" relative="1" as="geometry">
            <mxPoint x="-150" y="640" as="sourcePoint" />
            <mxPoint x="-150" y="560" as="targetPoint" />
          </mxGeometry>
        </mxCell>
        <mxCell id="_3O_NWdHPnYHmbS3pkrX-69" value="juzga" style="text;html=1;align=center;verticalAlign=middle;resizable=0;points=[];autosize=1;strokeColor=none;fillColor=none;" vertex="1" parent="1">
          <mxGeometry x="-175" y="528" width="50" height="30" as="geometry" />
        </mxCell>
        <mxCell id="_3O_NWdHPnYHmbS3pkrX-74" value="JuzResult" style="swimlane;fontStyle=0;childLayout=stackLayout;horizontal=1;startSize=26;fillColor=none;horizontalStack=0;resizeParent=1;resizeParentMax=0;resizeLast=0;collapsible=1;marginBottom=0;whiteSpace=wrap;html=1;" vertex="1" parent="1">
          <mxGeometry x="-280" y="640" width="140" height="78" as="geometry" />
        </mxCell>
        <mxCell id="_3O_NWdHPnYHmbS3pkrX-75" value="- conedana: boolean" style="text;strokeColor=none;fillColor=none;align=left;verticalAlign=top;spacingLeft=4;spacingRight=4;overflow=hidden;rotatable=0;points=[[0,0.5],[1,0.5]];portConstraint=eastwest;whiteSpace=wrap;html=1;" vertex="1" parent="_3O_NWdHPnYHmbS3pkrX-74">
          <mxGeometry y="26" width="140" height="26" as="geometry" />
        </mxCell>
        <mxCell id="_3O_NWdHPnYHmbS3pkrX-76" value="- tiempo: String" style="text;strokeColor=none;fillColor=none;align=left;verticalAlign=top;spacingLeft=4;spacingRight=4;overflow=hidden;rotatable=0;points=[[0,0.5],[1,0.5]];portConstraint=eastwest;whiteSpace=wrap;html=1;" vertex="1" parent="_3O_NWdHPnYHmbS3pkrX-74">
          <mxGeometry y="52" width="140" height="26" as="geometry" />
        </mxCell>
        <mxCell id="_3O_NWdHPnYHmbS3pkrX-78" value="ataca" style="text;html=1;align=center;verticalAlign=middle;resizable=0;points=[];autosize=1;strokeColor=none;fillColor=none;" vertex="1" parent="1">
          <mxGeometry x="420" y="397" width="50" height="30" as="geometry" />
        </mxCell>
        <mxCell id="_3O_NWdHPnYHmbS3pkrX-79" value="1..*" style="text;html=1;align=center;verticalAlign=middle;resizable=0;points=[];autosize=1;strokeColor=none;fillColor=none;" vertex="1" parent="1">
          <mxGeometry x="-230" y="534" width="40" height="30" as="geometry" />
        </mxCell>
        <mxCell id="_3O_NWdHPnYHmbS3pkrX-80" value="*" style="text;html=1;align=center;verticalAlign=middle;resizable=0;points=[];autosize=1;strokeColor=none;fillColor=none;" vertex="1" parent="1">
          <mxGeometry x="-105" y="528" width="30" height="30" as="geometry" />
        </mxCell>
        <mxCell id="_3O_NWdHPnYHmbS3pkrX-81" value="*" style="text;html=1;align=center;verticalAlign=middle;resizable=0;points=[];autosize=1;strokeColor=none;fillColor=none;" vertex="1" parent="1">
          <mxGeometry x="5" y="628" width="30" height="30" as="geometry" />
        </mxCell>
        <mxCell id="_3O_NWdHPnYHmbS3pkrX-82" value="*" style="text;html=1;align=center;verticalAlign=middle;resizable=0;points=[];autosize=1;strokeColor=none;fillColor=none;" vertex="1" parent="1">
          <mxGeometry x="5" y="588" width="30" height="30" as="geometry" />
        </mxCell>
        <mxCell id="_3O_NWdHPnYHmbS3pkrX-83" value="" style="endArrow=diamondThin;endFill=1;endSize=24;html=1;rounded=0;exitX=0.5;exitY=0;exitDx=0;exitDy=0;" edge="1" parent="1" source="_3O_NWdHPnYHmbS3pkrX-5">
          <mxGeometry width="160" relative="1" as="geometry">
            <mxPoint x="30" y="370" as="sourcePoint" />
            <mxPoint x="-70" y="160" as="targetPoint" />
            <Array as="points">
              <mxPoint x="190" y="160" />
            </Array>
          </mxGeometry>
        </mxCell>
      </root>
    </mxGraphModel>
  </diagram>
</mxfile>
